<?xml version="1.0" encoding="UTF-8" standalone="no"?><!DOCTYPE svg PUBLIC "-//W3C//DTD SVG 1.1//EN" "http://www.w3.org/Graphics/SVG/1.1/DTD/svg11.dtd"><svg width="100%" height="100%" viewBox="0 0 1209 1150" version="1.1" xmlns="http://www.w3.org/2000/svg" xmlns:xlink="http://www.w3.org/1999/xlink" xml:space="preserve" xmlns:serif="http://www.serif.com/" style="fill-rule:evenodd;clip-rule:evenodd;stroke-linejoin:round;stroke-miterlimit:2;"><rect id="Logo-Mark---Black" serif:id="Logo Mark - Black" x="-0" y="-0" width="1205.528" height="1148.834" style="fill:none;"/><g id="Black.png"><path d="M685.383,630.673c2.065,34.892 4.604,34.482 9.758,54.409c2.573,9.946 -2.635,13.807 -0.308,25.048c9.404,45.432 22.427,60.654 15.27,71.674c-9.84,15.152 1.756,15.499 11.277,48.791c10.629,37.168 8.716,38.531 19.896,50.555c2.371,2.55 10.47,6.674 1.843,37.388c-0.662,2.358 -3.741,11.239 -3.58,11.787c1.586,5.416 9.643,0.508 10.35,0.077c0.926,-0.564 24.798,-16.728 29.244,-20.589c51.191,-44.444 66.224,-120.389 71.325,-145.649c11.847,-58.669 16.385,-175.686 13.823,-233.472c-0.703,-15.853 0.552,-22.328 -2.049,-54.094c-2.272,-27.751 -4.612,-145.901 -44.815,-212.954c-1.947,-3.247 -22.705,-44.156 -68.334,-68.607c-59.528,-31.9 -152.722,-26.013 -161.821,-23.865c-36.234,8.552 -32.891,31.324 -33.718,84.561c-0.681,43.813 1.09,99.925 -1.173,102.99c-0.193,0.261 -5.191,3.174 -9.349,-0.415c-1.85,-1.597 -8.082,-15.467 -30.288,-10.179c-14.792,3.522 -35.681,33.938 -22.739,54.447c14.133,22.394 20.444,19.041 27.22,44.694c7.809,29.562 8.843,29.188 19.974,54.472c4.393,9.979 5.72,9.735 5.788,20.691c0.11,17.766 9.337,15.594 10.425,33.352c0.816,13.305 -0.097,13.235 0.08,166.625c0.07,60.35 -5.449,106.492 -34.222,161.6c-11.972,22.93 -32.731,43.21 -36.1,46.501c-29.474,28.794 -40.099,31.148 -53.282,38.935c-14.377,8.492 -59.645,25.509 -87.933,29.344c-16.812,2.279 -16.621,3.282 -33.491,4.009c-25.062,1.08 -24.993,1.845 -50.128,0.43c-1.288,-0.073 -40.862,1.382 -87.503,-18.178c-6.168,-2.587 -26.542,-13.717 -32.204,-18.161c-16.836,-13.211 -23.802,-21.867 -25.562,-24.055c-20.921,-25.997 -32.504,-68.433 -22.583,-104.111c11.216,-40.335 32.735,-56.601 44.019,-64.792c32.78,-23.797 91.347,-31.447 136.792,10.536c10.432,9.637 21.812,27.492 25.421,37.641c9.656,27.147 8.757,57.698 2.377,74.952c-15.364,41.548 -41.127,55.317 -48.355,59.857c-6.902,4.335 -22.046,10.469 -34.112,10.636c-12.141,0.168 -12.231,-0.628 -16.444,0.884c-6.742,2.42 -0.313,7.334 0.177,7.709c0.3,0.229 66.831,16.229 98.517,-9.354c36.659,-29.598 33.135,-99.689 33.136,-102.717c0.02,-51.993 0.25,-636.727 -0.345,-649.91c-3.142,-69.564 -82.837,-31.647 -92.496,-51.02c-0.29,-0.583 -6.06,-15.548 10.686,-17.381c4.259,-0.466 381.842,-2.089 416.976,0.511c6.014,0.445 34.172,2.528 74.517,11.365c1.019,0.223 50.449,14.559 59.191,17.566c56.545,19.455 114.087,56.277 141.068,80.669c13.414,12.127 66.352,55.314 102.448,129.873c44.419,91.75 40.988,167.662 37.622,219.878c-0.563,8.739 -6.586,56.391 -17.98,88.022c-37.518,104.15 -98.367,159.205 -152.6,197.519c-27.656,19.538 -44.896,28.236 -49.012,30.312c-79.47,40.093 -117.446,46.017 -170.107,52.985c-2.596,0.344 -49.021,4.803 -66.911,4.198c-11.05,-0.374 -24.312,-1.463 -17.753,-23.222c2.939,-9.75 11.163,-17.375 14.412,-41.248c3.177,-23.345 -17.182,-96.614 -18.738,-99.448c-3.517,-6.407 -10.812,-7.657 -12.787,-25.445c-3.995,-35.991 -5.689,-37.891 -8.46,-79.243c-1.451,-21.656 -11.335,-17.096 -14.213,-25.562c-5.309,-15.623 16.672,-97.414 12.521,-120.571c-3.329,-18.572 -18.152,-29.319 -18.809,-41.476c-0.191,-3.541 2.147,-7.328 -4.574,-19.974c-27.354,-51.469 -21.195,-61.517 -30.892,-80.479c-4.607,-9.009 -20.351,-20.213 -20.407,-32.879c-0.059,-13.447 6.327,-15.614 7.207,-16.688c0.668,-0.815 0.623,-2.15 1.441,-2.815c0.584,-0.475 11.462,-3.354 14.806,-0.921c1.509,1.098 3.566,7.549 3.786,8.24c0.223,0.698 2.242,7.032 5.113,7.605c1.292,0.258 2.707,0.31 3.951,-0.124c1.613,-0.563 2.678,-2.277 4.317,-2.761c5.972,-1.762 4.714,6.735 4.612,7.427c-1.243,8.398 -6.492,19.356 0.964,36.871c25.111,58.986 30.789,56.416 39.469,63.946c2.186,1.896 29.042,34.229 36.897,26.974c7.031,-6.495 -13.219,-19.159 -15.83,-23.286c-5.458,-8.627 -2.488,-13.267 1.473,-29.23c4.501,-18.138 10.905,-14.171 18.906,-25.861c4.283,-6.258 3.812,-6.46 8.036,-12.734c5.332,-7.919 1.865,-9.604 7.604,-17.266c3.541,-4.727 3.98,-13.193 13.927,-9.628c28.818,10.33 42.935,3.378 67.776,27.069c7.939,7.572 11.955,14.242 15.728,34.041c6.86,35.993 -24.147,54.017 -29.613,56.695c-14.152,6.933 -35.759,9.057 -37.047,13.919c-4.086,15.418 35.184,1.834 38.062,0.839c11.985,-4.146 15.1,-1.496 31.95,-18.51c19.478,-19.668 20.719,-21.55 22.148,-23.718c5.233,-7.937 11.777,-14.269 9.022,-29.393c-1.838,-10.091 -2.395,-10.067 -1.764,-12.803c0.107,-0.463 1.135,-4.915 4.99,-3.224c4.989,2.189 3.173,4.861 8.363,6.539c0.399,0.129 2.641,0.854 4.537,-2.626c2.393,-4.393 3.404,-12.722 7.493,-14.418c1.324,-0.55 2.823,-0.843 4.248,-0.681c1.638,0.186 3.015,1.464 4.647,1.693c1.399,0.196 2.807,-0.589 4.213,-0.451c4.896,0.482 3.893,2.188 6.709,6.256c3.76,5.431 6.271,5.134 4.237,11.475c-0.437,1.363 -1.512,2.543 -1.639,3.969c-0.372,4.171 2.341,3.752 1.838,7.906c-0.314,2.591 -24.879,17.935 -32.006,29.832c-23.814,39.752 -32.095,46.894 -45.707,58.512c-9.671,8.255 -10.37,7.739 -12.516,12.37c-1.712,3.694 -2.604,9.102 -8.562,12.301c-28.13,15.105 -41.778,15.5 -43.76,54.217Zm6.582,318.256c-27.818,4.639 -27.934,3.435 -37.633,4.527c-1.477,0.166 -2.929,0.51 -4.4,0.722c-5.471,0.789 -7.133,3.242 -9.32,-1.886c-1.913,-4.483 -0.828,-4.651 1.667,-8.77c6.286,-10.378 5.976,-10.473 13.1,-20.323c11.316,-15.646 -6.305,-17.222 -6.954,-42.413c-0.66,-25.619 2.746,-25.858 -3.2,-58.259c-2.627,-14.318 -0.792,-14.291 0.246,-21.101c0.579,-3.802 -0.772,-13.005 1.698,-14.669c4.505,-3.034 6.995,5.62 7.208,6.359c2.763,9.601 7.74,7.865 15.25,17.729c10.875,14.282 36.248,65.984 39.009,78.167c5.584,24.636 -0.993,52.85 -5.816,56.542c-3.03,2.319 -3.329,1.58 -10.855,3.373Z" style="fill:#0f172a;fill-opacity:1;"/></g></svg>